<?xml version="1.0" encoding="UTF-8" standalone="no"?><!DOCTYPE svg PUBLIC "-//W3C//DTD SVG 1.1//EN" "http://www.w3.org/Graphics/SVG/1.1/DTD/svg11.dtd"><svg width="100%" height="100%" viewBox="0 0 254 180" version="1.1" xmlns="http://www.w3.org/2000/svg" xmlns:xlink="http://www.w3.org/1999/xlink" xml:space="preserve" xmlns:serif="http://www.serif.com/" style="fill-rule:evenodd;clip-rule:evenodd;stroke-linejoin:round;stroke-miterlimit:2;"><g><path d="M162.635,156.16c7.876,-1.464 14.148,-6.284 17.011,-12.323c14.013,-2.774 23.428,-15.862 21.107,-29.569c-1.047,-6.186 -4.31,-11.466 -8.873,-15.214c1.236,-3.015 1.671,-6.243 1.123,-9.482c-1.454,-8.589 -9.405,-14.821 -19.44,-16.29c-4.083,-11.629 -16.406,-18.948 -29.372,-16.753c-1.27,0.215 -2.505,0.514 -3.698,0.891c-6.485,-5.542 -16.062,-8.256 -26.075,-6.561c-9.216,1.561 -16.855,6.527 -21.363,13.05c-3.014,-0.319 -6.127,-0.237 -9.27,0.295c-17.99,3.046 -30.198,19.679 -27.245,37.122c2.63,15.536 16.407,26.507 32.099,26.568c6.65,11.227 20.042,17.768 34.033,15.4c1.138,-0.193 2.253,-0.44 3.343,-0.738c13.669,6.783 23.182,18.558 31.584,34.602c2.629,4.644 6.062,1.363 6.437,-4.15c0.267,-5.713 -0.178,-11.38 -1.401,-16.848Zm-3.076,-28.976c3.194,-4.566 4.13,-8.017 3.545,-10.905c-0.582,-2.879 -2.638,-5.131 -5.137,-7.322c-2.741,-2.403 -6.023,-4.701 -8.836,-7.428c-2.978,-2.887 -5.433,-6.245 -6.339,-10.617c-0.142,-0.689 0.301,-1.364 0.989,-1.507c0.689,-0.143 1.364,0.301 1.507,0.989c0.796,3.843 3,6.768 5.617,9.305c2.782,2.697 6.032,4.965 8.742,7.341c2.953,2.589 5.267,5.331 5.956,8.733c0.686,3.392 -0.205,7.51 -3.955,12.872c-0.403,0.576 -1.198,0.717 -1.775,0.314c-0.576,-0.403 -0.717,-1.198 -0.314,-1.775Zm-11.43,-5.83c-0.802,-1.255 -3.284,-3.694 -4.425,-4.641c-3.669,-3.047 -8.152,-4.902 -12.955,-4.314c-2.733,0.335 -4.135,1.9 -5.118,3.768c-0.759,1.441 -1.288,3.053 -1.898,4.528c-0.901,2.184 -2.009,4.069 -3.884,5.058c-1.841,0.972 -4.51,1.146 -8.672,-0.429c-0.657,-0.249 -0.99,-0.985 -0.74,-1.643c0.249,-0.658 0.985,-0.99 1.642,-0.741c3.052,1.155 5.037,1.289 6.436,0.632c0.962,-0.452 1.59,-1.277 2.116,-2.245c0.638,-1.174 1.115,-2.555 1.656,-3.919c1.413,-3.557 3.261,-6.94 8.152,-7.539c5.513,-0.675 10.682,1.386 14.893,4.883c1.415,1.175 4.553,4.389 5.221,5.709c0.392,0.774 0.238,1.389 0.04,1.71c-0.196,0.319 -0.502,0.578 -0.996,0.662c-0.693,0.117 -1.352,-0.35 -1.469,-1.044c-0.025,-0.148 -0.024,-0.295 0.001,-0.435Zm35.504,-2.633c-1.165,-4.901 -4.828,-8.662 -10.1,-7.884c-0.696,0.103 -1.344,-0.379 -1.447,-1.075c-0.102,-0.695 0.379,-1.344 1.075,-1.446c6.686,-0.987 11.475,3.599 12.952,9.816c0.162,0.684 -0.261,1.372 -0.945,1.534c-0.684,0.163 -1.372,-0.261 -1.535,-0.945Zm-89.31,-29.73c2.389,2.983 4.862,8.015 5.363,12.645c0.325,2.99 -0.174,5.812 -1.866,7.925c-1.145,1.43 -2.839,2.557 -5.255,3.163c-3.248,0.816 -6.487,0.254 -9.687,-0.047c-2.78,-0.261 -5.533,-0.318 -8.217,1.42c-0.591,0.382 -1.379,0.213 -1.762,-0.377c-0.383,-0.59 -0.213,-1.38 0.377,-1.762c3.219,-2.086 6.506,-2.132 9.841,-1.818c2.915,0.274 5.866,0.856 8.826,0.113c1.778,-0.446 3.047,-1.234 3.889,-2.285c1.288,-1.609 1.568,-3.781 1.32,-6.058c-0.45,-4.149 -2.678,-8.652 -4.819,-11.326c-0.439,-0.549 -0.351,-1.351 0.197,-1.791c0.55,-0.439 1.353,-0.351 1.793,0.198Zm-68.726,9.323l-20.931,-1.683c-2.568,0 -4.657,2.085 -4.657,4.657c-0,2.568 2.089,4.653 4.657,4.653l20.931,-1.682c1.642,-0 2.974,-1.328 2.974,-2.971c0,-1.642 -1.332,-2.974 -2.974,-2.974Zm202.002,5.945l20.93,1.682c2.568,0 4.657,-2.085 4.657,-4.653c0,-2.572 -2.089,-4.657 -4.657,-4.657l-20.93,1.683c-1.643,-0 -2.975,1.332 -2.975,2.974c0,1.643 1.332,2.971 2.975,2.971Zm-165.692,-15.387c2.735,-0.896 5.091,-2.554 7.503,-3.772c2.044,-1.033 4.127,-1.768 6.437,-1.698c2.306,0.069 4.859,0.931 7.835,3.22c0.557,0.429 0.659,1.23 0.231,1.787c-0.429,0.558 -1.229,0.662 -1.786,0.233c-2.425,-1.866 -4.478,-2.636 -6.357,-2.693c-1.873,-0.057 -3.551,0.587 -5.21,1.425c-2.522,1.275 -5,2.983 -7.858,3.919c-0.669,0.219 -1.388,-0.146 -1.609,-0.814c-0.217,-0.668 0.148,-1.389 0.814,-1.607Zm99.949,-0.025c-11.391,-13.581 -25.961,-13.488 -33.177,-11.852c-0.686,0.155 -1.369,-0.275 -1.525,-0.961c-0.155,-0.686 0.275,-1.369 0.961,-1.525c7.761,-1.758 23.444,-1.905 35.693,12.7c0.452,0.539 0.382,1.344 -0.157,1.795c-0.539,0.452 -1.343,0.382 -1.795,-0.157Zm-40.962,-0.803c-3.358,-6.36 -10.36,-12.875 -18.102,-11.302c-0.687,0.14 -1.362,-0.306 -1.502,-0.995c-0.139,-0.69 0.308,-1.363 0.995,-1.503c8.843,-1.796 17.027,5.345 20.863,12.61c0.329,0.622 0.09,1.394 -0.532,1.722c-0.622,0.328 -1.393,0.09 -1.722,-0.532Zm88.722,-41.725l17.597,-11.456c2.033,-1.569 2.413,-4.496 0.844,-6.529c-1.572,-2.036 -4.499,-2.411 -6.532,-0.841l-15.542,14.12c-1.3,1.004 -1.54,2.872 -0.537,4.172c1.004,1.3 2.87,1.538 4.17,0.534Zm-160.788,-4.706l-15.542,-14.12c-2.033,-1.57 -4.96,-1.195 -6.532,0.841c-1.569,2.033 -1.189,4.96 0.844,6.529l17.597,11.456c1.3,1.004 3.166,0.766 4.17,-0.534c1.003,-1.3 0.763,-3.168 -0.537,-4.172Zm77.113,-16.025l1.683,-20.93c-0,-2.568 -2.085,-4.658 -4.657,-4.658c-2.568,0 -4.653,2.09 -4.653,4.658l1.682,20.93c0,1.642 1.329,2.975 2.971,2.975c1.642,-0 2.974,-1.333 2.974,-2.975Z" style="fill:#e9f4f7;"/></g></svg>