<?xml version="1.0" encoding="UTF-8" standalone="no"?>
<!DOCTYPE svg PUBLIC "-//W3C//DTD SVG 1.1//EN" "http://www.w3.org/Graphics/SVG/1.1/DTD/svg11.dtd">
<svg width="100%" height="100%" viewBox="0 0 261 225" version="1.1" xmlns="http://www.w3.org/2000/svg" xmlns:xlink="http://www.w3.org/1999/xlink" xml:space="preserve" xmlns:serif="http://www.serif.com/" style="fill-rule:evenodd;clip-rule:evenodd;stroke-linejoin:round;stroke-miterlimit:2;">
    <g transform="matrix(1,0,0,1,-829,-58.6383)">
        <g transform="matrix(1,0,0,0.997163,0,4.79152)">
            <rect x="829" y="54" width="261" height="225" style="fill:none;"/>
        </g>
        <g id="logo-h" transform="matrix(0.395284,0,0,0.395284,713.602,-174.647)">
            <g transform="matrix(1,0,0,1,21.7667,17.061)">
                <g transform="matrix(0.441938,0,0,0.456986,181.376,486.534)">
                    <path d="M451.657,1234.4L449.431,1243.93L430.641,1246.07C433.075,1249.75 434.292,1254.44 434.292,1260.14C434.292,1271.48 430.834,1280.51 423.918,1287.25C417.002,1293.99 407.755,1297.36 396.179,1297.36C392.914,1297.36 390.42,1297.12 388.699,1296.65C380.447,1299.79 376.321,1303.68 376.321,1308.31C376.321,1310.75 377.3,1312.36 379.259,1313.17C381.218,1313.97 384.068,1314.61 387.808,1315.08L398.227,1316.33C408.972,1317.63 416.764,1320.25 421.603,1324.16C426.441,1328.08 428.86,1333.84 428.86,1341.44C428.86,1352.36 424.526,1360.82 415.859,1366.82C407.191,1372.82 394.991,1375.81 379.259,1375.81C367.742,1375.81 358.718,1373.63 352.188,1369.27C345.658,1364.9 342.392,1358.75 342.392,1350.79C342.392,1344.56 344.53,1339.15 348.804,1334.58C353.078,1330.01 359.995,1326.12 369.553,1322.92C364.922,1320.48 362.607,1316.89 362.607,1312.14C362.607,1308.05 364.121,1304.53 367.148,1301.59C370.176,1298.65 374.391,1295.9 379.793,1293.35C376.053,1291.45 372.996,1288.65 370.621,1284.94C368.247,1281.23 367.059,1276.91 367.059,1271.98C367.059,1260.46 370.606,1251.02 377.701,1243.66C384.795,1236.3 393.863,1232.62 404.906,1232.62C409.536,1232.62 414.107,1233.21 418.619,1234.4L451.657,1234.4ZM356.819,1349.37C356.819,1353.94 358.748,1357.56 362.607,1360.23C366.466,1362.9 372.195,1364.24 379.793,1364.24C390.598,1364.24 399.043,1362.35 405.128,1358.58C411.213,1354.81 414.256,1349.48 414.256,1342.6C414.256,1338.92 412.653,1336.01 409.447,1333.87C406.241,1331.73 400.78,1330.25 393.062,1329.42L378.903,1327.99C371.779,1329.48 366.317,1332.09 362.518,1335.83C358.718,1339.57 356.819,1344.08 356.819,1349.37ZM381.574,1271.45C381.574,1276.49 382.91,1280.34 385.582,1282.98C388.253,1285.62 391.964,1286.94 396.713,1286.94C401.403,1286.94 405.499,1285.69 409.002,1283.2C412.505,1280.71 415.191,1277.28 417.061,1272.91C418.931,1268.55 419.866,1263.82 419.866,1258.71C419.866,1253.84 418.56,1250.13 415.948,1247.58C413.336,1245.03 409.596,1243.75 404.728,1243.75C400.097,1243.75 396.045,1244.95 392.572,1247.36C389.099,1249.76 386.398,1253.12 384.469,1257.42C382.539,1261.73 381.574,1266.4 381.574,1271.45Z" style="fill:rgb(13,130,168);fill-rule:nonzero;"/>
                    <path d="M507.117,1333.78C496.194,1333.78 487.615,1330.55 481.382,1324.08C475.148,1317.6 472.032,1308.64 472.032,1297.18C472.032,1286.02 474.243,1275.32 478.666,1265.08C483.089,1254.84 488.951,1246.87 496.253,1241.17C503.555,1235.47 511.6,1232.62 520.386,1232.62C529.469,1232.62 536.296,1234.59 540.867,1238.54C545.439,1242.49 547.724,1248 547.724,1255.06C547.724,1265.75 542.797,1274.13 532.942,1280.22C523.087,1286.3 508.987,1289.35 490.643,1289.35L487.704,1289.35L487.348,1296.47C487.348,1304.25 489.174,1310.32 492.825,1314.68C496.476,1319.04 502.131,1321.23 509.789,1321.23C513.529,1321.23 517.373,1320.69 521.321,1319.62C525.269,1318.55 530.181,1316.59 536.059,1313.75L536.059,1326.75C530.478,1329.36 525.551,1331.18 521.276,1332.22C517.002,1333.26 512.282,1333.78 507.117,1333.78ZM519.495,1245.35C513.381,1245.35 507.637,1248.14 502.264,1253.73C496.891,1259.31 492.78,1267.05 489.931,1276.97L490.999,1276.97C504.535,1276.97 514.909,1275.2 522.122,1271.67C529.335,1268.14 532.942,1263.02 532.942,1256.31C532.942,1253.16 531.858,1250.55 529.692,1248.47C527.525,1246.39 524.126,1245.35 519.495,1245.35Z" style="fill:rgb(13,130,168);fill-rule:nonzero;"/>
                    <path d="M638.449,1232.62C642.545,1232.62 646.107,1233.04 649.135,1233.87L645.929,1247.22C642.782,1246.45 639.666,1246.07 636.578,1246.07C631.176,1246.07 626.115,1247.85 621.395,1251.41C616.676,1254.97 612.55,1259.91 609.017,1266.24C605.485,1272.56 602.888,1279.58 601.226,1287.3L591.697,1332L576.737,1332L597.574,1234.4L609.952,1234.4L607.993,1252.48L608.884,1252.48C613.158,1246.84 616.691,1242.79 619.481,1240.32C622.271,1237.86 625.195,1235.96 628.252,1234.62C631.31,1233.29 634.708,1232.62 638.449,1232.62Z" style="fill:rgb(13,130,168);fill-rule:nonzero;"/>
                    <path d="M715.548,1233.15C726.828,1233.15 735.733,1236.49 742.263,1243.17C748.793,1249.85 752.059,1259.04 752.059,1270.73C752.059,1281.89 749.921,1292.43 745.647,1302.35C741.373,1312.26 735.584,1319.92 728.282,1325.32C720.98,1330.72 712.728,1333.42 703.526,1333.42C692.128,1333.42 683.193,1330.07 676.722,1323.36C670.251,1316.65 667.016,1307.48 667.016,1295.85C667.016,1284.57 669.183,1273.95 673.516,1264.01C677.85,1254.07 683.698,1246.44 691.059,1241.12C698.421,1235.81 706.584,1233.15 715.548,1233.15ZM736.564,1268.68C736.564,1261.86 734.709,1256.32 730.998,1252.08C727.288,1247.83 722.257,1245.71 715.904,1245.71C709.433,1245.71 703.63,1247.91 698.495,1252.3C693.36,1256.69 689.382,1262.79 686.562,1270.6C683.742,1278.41 682.332,1287.09 682.332,1296.65C682.332,1304.42 684.217,1310.43 687.987,1314.68C691.757,1318.92 697.174,1321.05 704.239,1321.05C710.413,1321.05 715.964,1318.88 720.891,1314.55C725.819,1310.21 729.663,1304.05 732.423,1296.07C735.184,1288.08 736.564,1278.96 736.564,1268.68Z" style="fill:rgb(13,130,168);fill-rule:nonzero;"/>
                    <path d="M843.762,1332L856.942,1270.38C858.129,1264.2 858.723,1259.93 858.723,1257.55C858.723,1253.81 857.669,1250.82 855.562,1248.56C853.454,1246.3 850.085,1245.18 845.454,1245.18C840.171,1245.18 835.021,1246.96 830.004,1250.52C824.988,1254.08 820.565,1259.16 816.736,1265.75C812.907,1272.34 810.012,1280.32 808.053,1289.7L799.059,1332L784.099,1332L804.937,1234.4L817.315,1234.4L815.356,1252.48L816.246,1252.48C821.945,1245.24 827.451,1240.12 832.765,1237.12C838.078,1234.12 843.584,1232.62 849.284,1232.62C856.823,1232.62 862.775,1234.68 867.138,1238.81C871.502,1242.93 873.683,1248.71 873.683,1256.13C873.683,1260.82 873.001,1266.16 871.635,1272.16L858.901,1332L843.762,1332Z" style="fill:rgb(13,130,168);fill-rule:nonzero;"/>
                    <path d="M937.514,1321.58C940.78,1321.58 945.054,1320.81 950.338,1319.27L950.338,1330.75C948.319,1331.58 945.826,1332.3 942.857,1332.89C939.889,1333.48 937.514,1333.78 935.733,1333.78C928.313,1333.78 922.628,1332.02 918.68,1328.48C914.732,1324.95 912.759,1319.68 912.759,1312.68C912.759,1308.76 913.293,1304.31 914.361,1299.32L925.671,1245.71L910.354,1245.71L911.601,1239.21L928.075,1232.26L939.206,1211.96L947.933,1211.96L943.036,1234.4L967.435,1234.4L965.12,1245.71L940.809,1245.71L929.322,1299.5C928.253,1304.66 927.719,1308.58 927.719,1311.25C927.719,1314.58 928.58,1317.13 930.301,1318.91C932.023,1320.69 934.427,1321.58 937.514,1321.58Z" style="fill:rgb(13,130,168);fill-rule:nonzero;"/>
                    <path d="M1036.97,1233.15C1048.25,1233.15 1057.15,1236.49 1063.68,1243.17C1070.21,1249.85 1073.48,1259.04 1073.48,1270.73C1073.48,1281.89 1071.34,1292.43 1067.07,1302.35C1062.79,1312.26 1057,1319.92 1049.7,1325.32C1042.4,1330.72 1034.15,1333.42 1024.94,1333.42C1013.55,1333.42 1004.61,1330.07 998.14,1323.36C991.669,1316.65 988.433,1307.48 988.433,1295.85C988.433,1284.57 990.6,1273.95 994.934,1264.01C999.268,1254.07 1005.12,1246.44 1012.48,1241.12C1019.84,1235.81 1028,1233.15 1036.97,1233.15ZM1057.98,1268.68C1057.98,1261.86 1056.13,1256.32 1052.42,1252.08C1048.7,1247.83 1043.67,1245.71 1037.32,1245.71C1030.85,1245.71 1025.05,1247.91 1019.91,1252.3C1014.78,1256.69 1010.8,1262.79 1007.98,1270.6C1005.16,1278.41 1003.75,1287.09 1003.75,1296.65C1003.75,1304.42 1005.63,1310.43 1009.4,1314.68C1013.17,1318.92 1018.59,1321.05 1025.66,1321.05C1031.83,1321.05 1037.38,1318.88 1042.31,1314.55C1047.24,1310.21 1051.08,1304.05 1053.84,1296.07C1056.6,1288.08 1057.98,1278.96 1057.98,1268.68Z" style="fill:rgb(13,130,168);fill-rule:nonzero;"/>
                    <path d="M1120.3,1332L1105.34,1332L1134.9,1193.44L1149.86,1193.44L1120.3,1332Z" style="fill:rgb(13,130,168);fill-rule:nonzero;"/>
                    <path d="M1222.07,1233.15C1233.35,1233.15 1242.25,1236.49 1248.78,1243.17C1255.31,1249.85 1258.58,1259.04 1258.58,1270.73C1258.58,1281.89 1256.44,1292.43 1252.16,1302.35C1247.89,1312.26 1242.1,1319.92 1234.8,1325.32C1227.5,1330.72 1219.25,1333.42 1210.04,1333.42C1198.64,1333.42 1189.71,1330.07 1183.24,1323.36C1176.77,1316.65 1173.53,1307.48 1173.53,1295.85C1173.53,1284.57 1175.7,1273.95 1180.03,1264.01C1184.37,1254.07 1190.21,1246.44 1197.58,1241.12C1204.94,1235.81 1213.1,1233.15 1222.07,1233.15ZM1243.08,1268.68C1243.08,1261.86 1241.23,1256.32 1237.52,1252.08C1233.81,1247.83 1228.77,1245.71 1222.42,1245.71C1215.95,1245.71 1210.15,1247.91 1205.01,1252.3C1199.88,1256.69 1195.9,1262.79 1193.08,1270.6C1190.26,1278.41 1188.85,1287.09 1188.85,1296.65C1188.85,1304.42 1190.73,1310.43 1194.5,1314.68C1198.27,1318.92 1203.69,1321.05 1210.76,1321.05C1216.93,1321.05 1222.48,1318.88 1227.41,1314.55C1232.34,1310.21 1236.18,1304.05 1238.94,1296.07C1241.7,1288.08 1243.08,1278.96 1243.08,1268.68Z" style="fill:rgb(13,130,168);fill-rule:nonzero;"/>
                    <path d="M1383.32,1234.4L1381.09,1243.93L1362.3,1246.07C1364.74,1249.75 1365.95,1254.44 1365.95,1260.14C1365.95,1271.48 1362.49,1280.51 1355.58,1287.25C1348.66,1293.99 1339.42,1297.36 1327.84,1297.36C1324.57,1297.36 1322.08,1297.12 1320.36,1296.65C1312.11,1299.79 1307.98,1303.68 1307.98,1308.31C1307.98,1310.75 1308.96,1312.36 1310.92,1313.17C1312.88,1313.97 1315.73,1314.61 1319.47,1315.08L1329.89,1316.33C1340.63,1317.63 1348.42,1320.25 1353.26,1324.16C1358.1,1328.08 1360.52,1333.84 1360.52,1341.44C1360.52,1352.36 1356.19,1360.82 1347.52,1366.82C1338.85,1372.82 1326.65,1375.81 1310.92,1375.81C1299.4,1375.81 1290.38,1373.63 1283.85,1369.27C1277.32,1364.9 1274.05,1358.75 1274.05,1350.79C1274.05,1344.56 1276.19,1339.15 1280.46,1334.58C1284.74,1330.01 1291.65,1326.12 1301.21,1322.92C1296.58,1320.48 1294.27,1316.89 1294.27,1312.14C1294.27,1308.05 1295.78,1304.53 1298.81,1301.59C1301.84,1298.65 1306.05,1295.9 1311.45,1293.35C1307.71,1291.45 1304.66,1288.65 1302.28,1284.94C1299.91,1281.23 1298.72,1276.91 1298.72,1271.98C1298.72,1260.46 1302.27,1251.02 1309.36,1243.66C1316.45,1236.3 1325.52,1232.62 1336.57,1232.62C1341.2,1232.62 1345.77,1233.21 1350.28,1234.4L1383.32,1234.4ZM1288.48,1349.37C1288.48,1353.94 1290.41,1357.56 1294.27,1360.23C1298.13,1362.9 1303.86,1364.24 1311.45,1364.24C1322.26,1364.24 1330.7,1362.35 1336.79,1358.58C1342.87,1354.81 1345.92,1349.48 1345.92,1342.6C1345.92,1338.92 1344.31,1336.01 1341.11,1333.87C1337.9,1331.73 1332.44,1330.25 1324.72,1329.42L1310.56,1327.99C1303.44,1329.48 1297.98,1332.09 1294.18,1335.83C1290.38,1339.57 1288.48,1344.08 1288.48,1349.37ZM1313.24,1271.45C1313.24,1276.49 1314.57,1280.34 1317.24,1282.98C1319.91,1285.62 1323.62,1286.94 1328.37,1286.94C1333.06,1286.94 1337.16,1285.69 1340.66,1283.2C1344.16,1280.71 1346.85,1277.28 1348.72,1272.91C1350.59,1268.55 1351.53,1263.82 1351.53,1258.71C1351.53,1253.84 1350.22,1250.13 1347.61,1247.58C1345,1245.03 1341.26,1243.75 1336.39,1243.75C1331.76,1243.75 1327.7,1244.95 1324.23,1247.36C1320.76,1249.76 1318.06,1253.12 1316.13,1257.42C1314.2,1261.73 1313.24,1266.4 1313.24,1271.45Z" style="fill:rgb(13,130,168);fill-rule:nonzero;"/>
                    <path d="M1415.18,1332L1400.22,1332L1421.06,1234.4L1436.02,1234.4L1415.18,1332ZM1425.24,1209.47C1425.24,1206.14 1426.19,1203.43 1428.09,1201.32C1429.99,1199.21 1432.45,1198.16 1435.48,1198.16C1440.71,1198.16 1443.32,1200.83 1443.32,1206.17C1443.32,1209.44 1442.33,1212.2 1440.34,1214.45C1438.35,1216.71 1436.05,1217.84 1433.43,1217.84C1431.06,1217.84 1429.1,1217.11 1427.56,1215.66C1426.01,1214.2 1425.24,1212.14 1425.24,1209.47Z" style="fill:rgb(13,130,168);fill-rule:nonzero;"/>
                    <path d="M1516.41,1232.62C1521.87,1232.62 1526.74,1234.09 1531.02,1237.03C1535.29,1239.97 1538.62,1244.2 1540.99,1249.72L1541.97,1249.72L1547.93,1234.4L1559.25,1234.4L1538.5,1332L1526.65,1332L1528.97,1313.39L1528.26,1313.39C1517.63,1326.98 1506.44,1333.78 1494.68,1333.78C1486.43,1333.78 1479.96,1330.84 1475.27,1324.96C1470.58,1319.09 1468.24,1311.04 1468.24,1300.83C1468.24,1288.48 1470.34,1277.03 1474.56,1266.46C1478.77,1255.89 1484.59,1247.61 1492.01,1241.61C1499.43,1235.62 1507.57,1232.62 1516.41,1232.62ZM1499.49,1321.4C1505.25,1321.4 1510.98,1318.66 1516.68,1313.17C1522.38,1307.67 1527.01,1300.52 1530.57,1291.7C1534.13,1282.89 1535.91,1274.06 1535.91,1265.21C1535.91,1259.1 1534.25,1254.23 1530.93,1250.61C1527.6,1246.99 1523.24,1245.18 1517.84,1245.18C1511.66,1245.18 1505.92,1247.73 1500.61,1252.83C1495.29,1257.94 1491.12,1264.86 1488.09,1273.58C1485.07,1282.31 1483.55,1291.51 1483.55,1301.19C1483.55,1307.96 1484.95,1313.02 1487.74,1316.37C1490.53,1319.73 1494.45,1321.4 1499.49,1321.4Z" style="fill:rgb(13,130,168);fill-rule:nonzero;"/>
                </g>
                <g transform="matrix(0.939837,0,0,0.971837,-47.2012,-282.425)">
                    <path d="M418.797,1255.77L473.118,1255.77L458.247,1326.57C443.405,1331.38 427.94,1333.78 411.852,1333.78C396.357,1333.78 384.335,1329.27 375.786,1320.25C367.237,1311.22 362.963,1298.43 362.963,1281.87C362.963,1266.01 366.228,1251.71 372.759,1238.94C379.289,1226.18 388.238,1216.46 399.607,1209.78C410.976,1203.1 424.2,1199.76 439.279,1199.76C455.071,1199.76 468.369,1202.94 479.173,1209.29L466.083,1236.81C457,1231.46 447.917,1228.79 438.834,1228.79C430.997,1228.79 424.066,1230.94 418.041,1235.25C412.015,1239.55 407.206,1245.92 403.614,1254.35C400.023,1262.78 398.227,1271.77 398.227,1281.33C398.227,1297 404.431,1304.84 416.838,1304.84C420.578,1304.84 424.526,1304.42 428.682,1303.59L433.224,1282.93L412.831,1282.93L418.797,1255.77Z" style="fill:rgb(13,130,168);fill-rule:nonzero;"/>
                    <path d="M605.607,1201.81L587.886,1284.8C584.383,1301.49 577.704,1313.82 567.85,1321.8C557.995,1329.79 544.607,1333.78 527.688,1333.78C519.733,1333.78 512.713,1332.15 506.628,1328.88C500.543,1325.62 495.853,1321.05 492.558,1315.17C489.263,1309.29 487.615,1302.73 487.615,1295.49C487.615,1291.69 487.972,1287.86 488.684,1284L506.405,1201.81L541.224,1201.81L523.859,1283.11C523.028,1287.15 522.612,1290.56 522.612,1293.35C522.612,1300.89 526.204,1304.66 533.387,1304.66C538.968,1304.66 543.346,1302.75 546.522,1298.92C549.698,1295.09 552.117,1289.23 553.78,1281.33L570.788,1201.81L605.607,1201.81Z" style="fill:rgb(13,130,168);fill-rule:nonzero;"/>
                    <path d="M680.035,1332L602.739,1332L630.256,1201.81L707.551,1201.81L701.763,1230.04L659.286,1230.04L655.101,1250.52L694.639,1250.52L688.228,1278.75L648.689,1278.75L643.613,1303.33L686.09,1303.33L680.035,1332Z" style="fill:rgb(13,130,168);fill-rule:nonzero;"/>
                    <path d="M816.798,1251.05C816.798,1267.68 813.859,1282.09 807.982,1294.29C802.105,1306.49 793.571,1315.82 782.38,1322.29C771.19,1328.77 757.936,1332 742.619,1332L700.677,1332L728.193,1201.81L765.238,1201.81C781.623,1201.81 794.313,1206.1 803.307,1214.68C812.301,1223.26 816.798,1235.38 816.798,1251.05ZM747.873,1303.15C754.404,1303.15 760.236,1301.07 765.372,1296.91C770.507,1292.76 774.499,1286.84 777.349,1279.15C780.199,1271.46 781.623,1262.69 781.623,1252.83C781.623,1245.41 780.02,1239.79 776.815,1235.96C773.609,1232.13 769.127,1230.22 763.368,1230.22L757.045,1230.22L741.729,1303.15L747.873,1303.15Z" style="fill:rgb(13,130,168);fill-rule:nonzero;"/>
                    <path d="M898.172,1332L820.877,1332L848.393,1201.81L925.689,1201.81L919.9,1230.04L877.423,1230.04L873.238,1250.52L912.776,1250.52L906.365,1278.75L866.826,1278.75L861.751,1303.33L904.228,1303.33L898.172,1332Z" style="fill:rgb(13,130,168);fill-rule:nonzero;"/>
                    <path d="M1002.88,1292.02C1002.88,1305.2 998.514,1315.45 989.787,1322.78C981.06,1330.12 968.89,1333.78 953.276,1333.78C946.746,1333.78 940.572,1333.05 934.754,1331.6C928.936,1330.14 923.919,1328.02 919.704,1325.23L919.704,1294.07C924.691,1297.21 930.405,1299.85 936.847,1301.99C943.288,1304.13 949.121,1305.2 954.345,1305.2C958.738,1305.2 962.063,1304.28 964.319,1302.43C966.574,1300.6 967.702,1297.98 967.702,1294.6C967.702,1293 967.346,1291.5 966.634,1290.1C965.921,1288.71 964.912,1287.31 963.606,1285.92C962.3,1284.52 958.797,1281.45 953.098,1276.7C946.152,1271.12 941.106,1265.42 937.96,1259.6C934.813,1253.78 933.24,1247.4 933.24,1240.46C933.24,1232.68 935.184,1225.69 939.073,1219.49C942.961,1213.28 948.453,1208.47 955.547,1205.06C962.641,1201.64 970.582,1199.94 979.368,1199.94C993.557,1199.94 1006.32,1203.12 1017.66,1209.47L1005.64,1235.91C995.486,1230.69 986.848,1228.08 979.724,1228.08C975.925,1228.08 973.001,1228.91 970.953,1230.57C968.905,1232.23 967.881,1234.67 967.881,1237.87C967.881,1240.78 968.875,1243.5 970.864,1246.02C972.853,1248.55 976.637,1251.91 982.218,1256.13C989.223,1261.29 994.418,1266.73 997.801,1272.42C1001.19,1278.12 1002.88,1284.65 1002.88,1292.02Z" style="fill:rgb(13,130,168);fill-rule:nonzero;"/>
                </g>
            </g>
            <g transform="matrix(2.24361,0,0,2.32,-409.629,-572.56)">
                <g transform="matrix(0.445711,0,0,0.431034,-1338.82,254.147)">
                    <path d="M4152.5,650.907C4152.5,650.455 4152.25,650.038 4151.86,649.815C4151.47,649.592 4150.99,649.598 4150.6,649.829L4043.04,714.04C4042.66,714.267 4042.43,714.676 4042.43,715.118L4042.43,843.957C4042.43,844.408 4042.68,844.825 4043.07,845.048C4043.46,845.271 4043.94,845.266 4044.33,845.035L4151.89,780.824C4152.27,780.597 4152.5,780.188 4152.5,779.746L4152.5,650.907ZM4074.58,733.94L4074.58,792.477L4123.54,763.246L4123.54,704.708L4074.58,733.94Z" style="fill:rgb(13,130,168);"/>
                </g>
                <g transform="matrix(0.445711,0,0,0.431034,-1338.82,254.147)">
                    <path d="M3955.01,719.532L4029.15,761.281C4029.38,761.409 4029.52,761.649 4029.52,761.91L4029.52,844.139C4029.52,844.398 4029.38,844.638 4029.16,844.766C4028.93,844.895 4028.65,844.892 4028.43,844.758L3921.38,780.85C3921.16,780.72 3921.03,780.485 3921.03,780.231L3921.03,651.203C3921.03,650.943 3921.17,650.703 3921.39,650.575C3921.62,650.447 3921.9,650.45 3922.12,650.583L4029.17,714.491C4029.39,714.621 4029.52,714.857 4029.52,715.111L4029.52,746.755C4029.52,747.011 4029.38,747.249 4029.16,747.378C4028.94,747.507 4028.67,747.51 4028.44,747.384L3955.01,706.033L3955.01,719.532ZM3953.41,779.713L4003.44,809.582L4003.44,771.049L3953.41,741.18L3953.41,779.713Z" style="fill:rgb(13,130,168);"/>
                </g>
                <g transform="matrix(0.445711,0,0,0.431034,-1338.82,254.147)">
                    <path d="M4036.5,613.892L4074.51,591.353C4074.77,591.195 4075.1,591.195 4075.37,591.353L4113.23,613.808C4113.49,613.96 4113.65,614.237 4113.65,614.535C4113.65,614.834 4113.49,615.111 4113.23,615.263L4076.02,637.33L4113.23,659.397C4113.49,659.549 4113.65,659.826 4113.65,660.125C4113.65,660.423 4113.49,660.7 4113.23,660.852L4075.37,683.307C4075.1,683.465 4074.77,683.465 4074.51,683.307L4036.5,660.768L3998.49,683.307C3998.22,683.465 3997.89,683.465 3997.62,683.307L3959.76,660.852C3959.5,660.7 3959.35,660.423 3959.35,660.125C3959.35,659.826 3959.5,659.549 3959.76,659.397L3996.97,637.33L3959.76,615.263C3959.5,615.111 3959.35,614.834 3959.35,614.535C3959.35,614.237 3959.5,613.96 3959.76,613.808L3997.62,591.353C3997.89,591.195 3998.22,591.195 3998.49,591.353L4036.5,613.892Z" style="fill:rgb(13,130,168);"/>
                </g>
            </g>
        </g>
    </g>
</svg>
