<svg xmlns="http://www.w3.org/2000/svg" viewBox="0 0 261 225" fill-rule="evenodd" stroke-linejoin="round" stroke-miterlimit="2"><g fill="#0d82a8"><path d="m43.8 188.7-.4 1.8-3.3.4q.6 1 .7 2.5 0 3-1.8 5c-1.9 1.8-2.9 1.7-5 1.7l-1.2-.1q-2.1.9-2.1 2.1 0 .6.5.9l1.4.3 1.9.2q2.8.4 4 1.4c1.4 1.1 1.3 1.8 1.3 3.2q0 3-2.3 4.6c-2.3 1.6-3.6 1.6-6.3 1.6q-3 0-4.8-1.2c-1.7-1.2-1.7-2-1.7-3.3q0-1.7 1.1-3c1.1-1.2 2-1.5 3.7-2q-1.2-.7-1.3-2a3 3 0 0 1 .8-2q.8-.7 2.2-1.4-1-.5-1.5-1.5a4 4 0 0 1-.7-2.4q0-3 1.9-5.1c1.9-2 2.8-2 4.7-2l2.4.3zm-16.6 20.8q0 1.3 1 2c1 .7 1.7.7 3 .7q2.9 0 4.5-1c1.6-1 1.6-1.7 1.6-3q0-.9-.9-1.5c-.8-.6-1.5-.6-2.8-.8l-2.5-.2a6 6 0 0 0-2.9 1.4 4 4 0 0 0-1 2.4m4.4-14q0 1.3.6 2c.7.8 1.2.7 2 .7q1.2 0 2.1-.6c1-.7 1.1-1.1 1.5-1.9s.4-1.7.4-2.6q0-1.3-.6-2c-.7-.6-1.1-.7-2-.7q-1.2 0-2.1.7c-1 .6-1.1 1-1.4 1.8s-.5 1.6-.5 2.5m21.9 11.3q-2.9 0-4.5-1.8c-1.6-1.7-1.6-2.7-1.6-4.8q0-3 1.1-5.8c1.2-2.8 1.8-3.3 3.1-4.4s2.7-1.5 4.2-1.5q2.4 0 3.6 1c1.1 1.2 1.2 1.8 1.2 3q0 3-2.6 4.6c-2.6 1.6-4.2 1.7-7.4 1.7h-.5v1.3q0 2 .9 3.2c1 1.2 1.6 1.2 3 1.2q1 0 2-.3l2.5-1v2.3q-1.4.7-2.5 1c-1.2.3-1.6.3-2.5.3m2.1-16q-1.5 0-3 1.5a8 8 0 0 0-2.1 4.2h.2q3.5 0 5.4-1c2-1 2-1.5 2-2.7q0-.8-.7-1.4-.7-.7-1.8-.6m20.8-2.3q1.1 0 1.9.3l-.6 2.3-1.6-.2q-1.4 0-2.6 1c-1.2 1-1.6 1.6-2.2 2.7s-1 2.4-1.4 3.8l-1.7 8h-2.6l3.7-17.6h2.1l-.3 3.3h.2q1.1-1.6 1.8-2.2a5 5 0 0 1 3.3-1.4m13.5.1q3 0 4.7 1.8c1.7 1.8 1.7 3 1.7 5q0 3-1.1 5.7c-1.1 2.7-1.8 3.2-3 4.1s-2.8 1.5-4.4 1.5q-3 0-4.7-1.8c-1.7-1.8-1.7-2.9-1.7-5q0-3 1.2-5.7c1.1-2.8 1.7-3.2 3-4.1s2.8-1.5 4.3-1.5m3.7 6.4q0-1.9-1-3c-1-1-1.5-1.1-2.6-1.1q-1.7 0-3 1.1c-1.4 1.2-1.6 2-2.1 3.4s-.8 3-.8 4.7q0 2 1 3.2c1 1.2 1.6 1.2 2.9 1.2q1.6 0 2.9-1.2c1.2-1.2 1.5-1.9 2-3.3s.7-3.1.7-5m18.7 11.5 2.4-11.2.2-2.3q0-1-.5-1.6-.7-.7-1.8-.6-1.4 0-2.7 1c-1.2 1-1.6 1.5-2.3 2.7s-1.2 2.6-1.5 4.3l-1.6 7.7H102l3.7-17.7h2.1l-.3 3.3h.1q1.5-2 3-2.7c1.3-.8 1.8-.9 2.8-.9q2 0 3.1 1.1c1.2 1.1 1.2 1.8 1.2 3.2q0 1.2-.4 2.9l-2.2 10.8zm16.4-2q.9 0 2.2-.3v2q-.5.3-1.3.4l-1.2.2q-2 0-3-1c-1-1-1-1.5-1-2.8q0-1.1.3-2.4l2-9.7H124l.2-1.2 2.9-1.3 2-3.6h1.4l-.8 4h4.2l-.4 2.1h-4.2l-2 9.7-.3 2.1q0 1 .5 1.4.5.6 1.2.5m17.4-16q2.9 0 4.6 1.8c1.8 1.8 1.8 3 1.8 5q0 3-1.2 5.7c-1.1 2.7-1.7 3.2-3 4.1a7 7 0 0 1-4.3 1.5q-3 0-4.7-1.8c-1.6-1.8-1.7-2.9-1.7-5q0-3 1.1-5.7c1.1-2.8 1.8-3.2 3.1-4.1s2.7-1.5 4.3-1.5m3.6 6.4q0-1.9-1-3c-1-1-1.5-1.1-2.6-1.1q-1.7 0-3 1.1c-1.4 1.2-1.6 2-2.1 3.4s-.8 3-.8 4.7q0 2 1 3.2c1 1.2 1.6 1.2 2.9 1.2q1.5 0 2.9-1.2c1.3-1.2 1.5-1.9 2-3.3s.8-3.1.8-5m10.8 11.5H158l5.2-25h2.6zm17.8-17.9q3 0 4.7 1.8c1.6 1.8 1.7 3 1.7 5q0 3-1.1 5.7c-1.2 2.7-1.8 3.2-3 4.1a7 7 0 0 1-4.4 1.5q-3 0-4.6-1.8c-1.7-1.8-1.7-2.9-1.7-5q0-3 1-5.7c1.2-2.8 1.8-3.2 3.1-4.1s2.8-1.5 4.3-1.5m3.7 6.4q0-1.9-1-3c-1-1-1.5-1.1-2.6-1.1q-1.7 0-3 1.1c-1.4 1.2-1.6 2-2.1 3.4s-.8 3-.8 4.7q0 2 1 3.2c1 1.2 1.6 1.2 2.8 1.2q1.7 0 3-1.2c1.3-1.2 1.5-1.9 2-3.3s.7-3.1.7-5m24.5-6.2-.4 1.8-3.2.4q.6 1 .6 2.5 0 3-1.8 5c-1.8 1.8-2.8 1.7-4.8 1.7l-1.4-.1q-2.1.9-2.1 2.1 0 .6.5.9l1.5.3 1.8.2q2.8.4 4 1.4c1.3 1.1 1.3 1.8 1.3 3.2q0 3-2.2 4.6c-2.3 1.6-3.7 1.6-6.4 1.6q-3 0-4.8-1.2c-1.7-1.2-1.7-2-1.7-3.3q0-1.7 1.1-3a7 7 0 0 1 3.7-2q-1.2-.7-1.2-2 0-1.1.8-2c.8-.7 1.2-1 2.2-1.4q-1-.5-1.6-1.5c-.6-1-.6-1.5-.6-2.4q0-3 1.8-5.1c1.9-2 2.8-2 4.8-2l2.3.3zM190 209.5q0 1.3 1 2 1.4.9 3 .7 3 0 4.5-1c1.6-1 1.6-1.7 1.6-3q0-.9-.8-1.5c-.8-.6-1.6-.6-2.9-.8l-2.5-.2a6 6 0 0 0-2.8 1.4 4 4 0 0 0-1 2.4m4.3-14q0 1.3.7 2c.7.8 1.1.7 2 .7q1.2 0 2.1-.6c1-.7 1.1-1.1 1.4-1.9s.5-1.7.5-2.6q0-1.3-.7-2-.7-.8-2-.7-1.1 0-2 .7c-1 .6-1.1 1-1.5 1.8s-.5 1.6-.5 2.5m17.8 11h-2.7l3.7-17.7h2.6zm1.8-22.2q0-.9.5-1.4.7-.7 1.3-.6 1.3 0 1.3 1.4 0 1-.5 1.5-.7.7-1.2.6t-1-.4q-.5-.5-.4-1m16 4.1q1.3 0 2.5.8c1.1.8 1.3 1.3 1.7 2.3h.2l1-2.8h2l-3.6 17.7h-2.1l.4-3.4h-.1q-2.8 3.7-5.9 3.7-2.1 0-3.4-1.6c-1.2-1.6-1.2-2.5-1.2-4.3q0-3.4 1.1-6.3c1-2.8 1.7-3.4 3-4.5s2.8-1.6 4.3-1.6m-3 16q1.6 0 3-1.4c1.5-1.5 1.9-2.3 2.5-3.9s1-3.2 1-4.8q0-1.6-1-2.6c-.8-1-1.3-1-2.2-1q-1.6 0-3 1.4c-1.5 1.3-1.7 2.1-2.2 3.7s-.8 3.3-.8 5q0 1.8.7 2.8c.7 1 1.2.9 2 .9M30.2 144.2h20.2l-5.5 27.2q-8.3 2.8-17.3 2.8a17 17 0 0 1-13.4-5.2q-4.7-5.2-4.7-14.8 0-9.1 3.6-16.5t10-11.2c6.3-3.9 9.1-3.8 14.7-3.8a28 28 0 0 1 14.9 3.7l-5 10.6q-5-3.1-10-3.1a13 13 0 0 0-7.8 2.5q-3.4 2.5-5.4 7.3c-2 4.9-2 6.7-2 10.4q0 9 7 9a22 22 0 0 0 4.4-.5l1.6-7.9H28zm69.4-20.7L93 155.4a24 24 0 0 1-7.5 14.2 23 23 0 0 1-15 4.6 16 16 0 0 1-7.7-1.9 13 13 0 0 1-5.3-5.3q-1.8-3.4-1.8-7.5 0-2.3.4-4.4l6.6-31.6h12.9l-6.4 31.2q-.5 2.3-.5 4 0 4.3 4 4.3 3.1 0 4.9-2.2c1.8-2.2 2-3.7 2.7-6.8l6.3-30.5zm27.7 50H98.4l10.3-50h28.7l-2.1 10.8h-15.8l-1.5 8h14.6l-2.3 10.7h-14.7l-1.9 9.5h15.8zm50.8-31q0 9.5-3.3 16.5c-3.3 7-5.3 8.3-9.5 10.8a28 28 0 0 1-14.8 3.7H135l10.1-50h13.8q9.2 0 14.2 5c5 4.9 5 7.9 5 14m-25.6 20a10 10 0 0 0 6.5-2.5q2.9-2.4 4.4-6.8c1.6-4.4 1.6-6.3 1.6-10.1q0-4.3-1.8-6.5c-1.8-2.2-2.8-2.2-5-2.2h-2.3l-5.7 28zm55.8 11h-28.7l10.2-50h28.8l-2.3 10.8h-15.7l-1.6 8h14.7l-2.4 10.7h-14.7l-1.8 9.5h15.7zm39-15.4q0 7.6-5 11.9a20 20 0 0 1-13.5 4.2q-3.6 0-6.9-.9a18 18 0 0 1-5.6-2.4v-12q2.8 1.8 6.4 3c3.6 1.3 4.5 1.3 6.5 1.3q2.4 0 3.7-1a4 4 0 0 0 1.2-3q0-1-.4-1.8l-1-1.6-4-3.5q-3.8-3.2-5.6-6.6c-1.8-3.4-1.7-4.7-1.7-7.4q0-4.5 2-8 2.3-3.6 6.2-5.6t8.9-2q7.9 0 14.2 3.7l-4.5 10.2q-5.6-3-9.6-3-2.1 0-3.2 1c-1.2 1-1.2 1.5-1.2 2.7q0 1.7 1.1 3.2a25 25 0 0 0 4.2 3.9q4 3 5.8 6.2a15 15 0 0 1 2 7.5" fill-rule="nonzero"/><path d="M176.7 30.7q0-.3-.2-.4h-.5l-42.5 25.3q-.3.2-.3.4v51q0 .3.3.4h.5l42.5-25.3q.3-.2.3-.4zM146 63.6v23l19.3-11.5v-23zm-47.3-5.7L128 74.3l.1.3v32.5l-.1.3h-.3L85.4 82l-.2-.2v-51a.3.3 0 0 1 .5-.3L128 56l.1.3v12.5a.3.3 0 0 1-.4.2l-29-16.3zM98 81.7l19.7 11.7V78.2L98.1 66.4zM130.9 16l15-9h.4l15 9a.3.3 0 0 1 0 .5l-14.8 8.7 14.7 8.8q.2 0 .2.3t-.2.3l-15 8.9h-.3l-15-9-15 9h-.4l-15-9-.1-.2.1-.3 14.8-8.7-14.8-8.7-.1-.3.1-.3 15-9h.4z"/></g></svg>